solid LaserTest
   facet normal 0.000000e+000 1.000000e+000 0.000000e+000
      outer loop
         vertex 2.482658e-001 1.000000e-001 -3.406043e-001
         vertex 5.380324e-001 1.000000e-001 -5.380324e-001
         vertex -2.482658e-001 1.000000e-001 -3.406043e-001
      endloop
   endfacet
   facet normal 0.000000e+000 1.000000e+000 0.000000e+000
      outer loop
         vertex -2.482658e-001 1.000000e-001 -3.406043e-001
         vertex 5.380324e-001 1.000000e-001 -5.380324e-001
         vertex -5.380324e-001 1.000000e-001 -5.380324e-001
      endloop
   endfacet
   facet normal 0.000000e+000 1.000000e+000 0.000000e+000
      outer loop
         vertex -2.482658e-001 1.000000e-001 -3.406043e-001
         vertex -5.380324e-001 1.000000e-001 -5.380324e-001
         vertex -2.482658e-001 1.000000e-001 3.406043e-001
      endloop
   endfacet
   facet normal 0.000000e+000 1.000000e+000 0.000000e+000
      outer loop
         vertex -2.482658e-001 1.000000e-001 3.406043e-001
         vertex -5.380324e-001 1.000000e-001 -5.380324e-001
         vertex -5.380324e-001 1.000000e-001 5.380324e-001
      endloop
   endfacet
   facet normal 0.000000e+000 1.000000e+000 0.000000e+000
      outer loop
         vertex -2.482658e-001 1.000000e-001 3.406043e-001
         vertex -5.380324e-001 1.000000e-001 5.380324e-001
         vertex 2.482658e-001 1.000000e-001 3.406043e-001
      endloop
   endfacet
   facet normal 0.000000e+000 1.000000e+000 0.000000e+000
      outer loop
         vertex 2.482658e-001 1.000000e-001 3.406043e-001
         vertex -5.380324e-001 1.000000e-001 5.380324e-001
         vertex 5.380324e-001 1.000000e-001 5.380324e-001
      endloop
   endfacet
   facet normal 0.000000e+000 1.000000e+000 0.000000e+000
      outer loop
         vertex 2.482658e-001 1.000000e-001 3.406043e-001
         vertex 5.380324e-001 1.000000e-001 5.380324e-001
         vertex 2.482658e-001 1.000000e-001 -3.406043e-001
      endloop
   endfacet
   facet normal 0.000000e+000 1.000000e+000 0.000000e+000
      outer loop
         vertex 2.482658e-001 1.000000e-001 -3.406043e-001
         vertex 5.380324e-001 1.000000e-001 5.380324e-001
         vertex 5.380324e-001 1.000000e-001 -5.380324e-001
      endloop
   endfacet
   facet normal 0.000000e+000 -1.000000e+000 0.000000e+000
      outer loop
         vertex -2.482658e-001 0.000000e+000 3.406043e-001
         vertex -5.380324e-001 0.000000e+000 5.380324e-001
         vertex -2.482658e-001 0.000000e+000 -3.406043e-001
      endloop
   endfacet
   facet normal 0.000000e+000 -1.000000e+000 0.000000e+000
      outer loop
         vertex -2.482658e-001 0.000000e+000 -3.406043e-001
         vertex -5.380324e-001 0.000000e+000 5.380324e-001
         vertex -5.380324e-001 0.000000e+000 -5.380324e-001
      endloop
   endfacet
   facet normal 0.000000e+000 -1.000000e+000 0.000000e+000
      outer loop
         vertex -2.482658e-001 0.000000e+000 -3.406043e-001
         vertex -5.380324e-001 0.000000e+000 -5.380324e-001
         vertex 2.482658e-001 0.000000e+000 -3.406043e-001
      endloop
   endfacet
   facet normal 0.000000e+000 -1.000000e+000 0.000000e+000
      outer loop
         vertex 2.482658e-001 0.000000e+000 -3.406043e-001
         vertex -5.380324e-001 0.000000e+000 -5.380324e-001
         vertex 5.380324e-001 0.000000e+000 -5.380324e-001
      endloop
   endfacet
   facet normal 0.000000e+000 -1.000000e+000 0.000000e+000
      outer loop
         vertex 2.482658e-001 0.000000e+000 -3.406043e-001
         vertex 5.380324e-001 0.000000e+000 -5.380324e-001
         vertex 2.482658e-001 0.000000e+000 3.406043e-001
      endloop
   endfacet
   facet normal 0.000000e+000 -1.000000e+000 0.000000e+000
      outer loop
         vertex 2.482658e-001 0.000000e+000 3.406043e-001
         vertex 5.380324e-001 0.000000e+000 -5.380324e-001
         vertex 5.380324e-001 0.000000e+000 5.380324e-001
      endloop
   endfacet
   facet normal 0.000000e+000 -1.000000e+000 0.000000e+000
      outer loop
         vertex 2.482658e-001 0.000000e+000 3.406043e-001
         vertex 5.380324e-001 0.000000e+000 5.380324e-001
         vertex -2.482658e-001 0.000000e+000 3.406043e-001
      endloop
   endfacet
   facet normal 0.000000e+000 -1.000000e+000 0.000000e+000
      outer loop
         vertex -2.482658e-001 0.000000e+000 3.406043e-001
         vertex 5.380324e-001 0.000000e+000 5.380324e-001
         vertex -5.380324e-001 0.000000e+000 5.380324e-001
      endloop
   endfacet
   facet normal 1.000000e+000 0.000000e+000 0.000000e+000
      outer loop
         vertex 5.380324e-001 1.000000e-001 -5.380324e-001
         vertex 5.380324e-001 1.000000e-001 5.380324e-001
         vertex 5.380324e-001 0.000000e+000 -5.380324e-001
      endloop
   endfacet
   facet normal 1.000000e+000 0.000000e+000 0.000000e+000
      outer loop
         vertex 5.380324e-001 0.000000e+000 -5.380324e-001
         vertex 5.380324e-001 1.000000e-001 5.380324e-001
         vertex 5.380324e-001 0.000000e+000 5.380324e-001
      endloop
   endfacet
   facet normal 0.000000e+000 0.000000e+000 -1.000000e+000
      outer loop
         vertex -5.380324e-001 1.000000e-001 -5.380324e-001
         vertex 5.380324e-001 1.000000e-001 -5.380324e-001
         vertex -5.380324e-001 0.000000e+000 -5.380324e-001
      endloop
   endfacet
   facet normal 0.000000e+000 0.000000e+000 -1.000000e+000
      outer loop
         vertex -5.380324e-001 0.000000e+000 -5.380324e-001
         vertex 5.380324e-001 1.000000e-001 -5.380324e-001
         vertex 5.380324e-001 0.000000e+000 -5.380324e-001
      endloop
   endfacet
   facet normal -1.000000e+000 0.000000e+000 0.000000e+000
      outer loop
         vertex -5.380324e-001 1.000000e-001 5.380324e-001
         vertex -5.380324e-001 1.000000e-001 -5.380324e-001
         vertex -5.380324e-001 0.000000e+000 5.380324e-001
      endloop
   endfacet
   facet normal -1.000000e+000 0.000000e+000 0.000000e+000
      outer loop
         vertex -5.380324e-001 0.000000e+000 5.380324e-001
         vertex -5.380324e-001 1.000000e-001 -5.380324e-001
         vertex -5.380324e-001 0.000000e+000 -5.380324e-001
      endloop
   endfacet
   facet normal 0.000000e+000 0.000000e+000 1.000000e+000
      outer loop
         vertex 5.380324e-001 1.000000e-001 5.380324e-001
         vertex -5.380324e-001 1.000000e-001 5.380324e-001
         vertex 5.380324e-001 0.000000e+000 5.380324e-001
      endloop
   endfacet
   facet normal 0.000000e+000 0.000000e+000 1.000000e+000
      outer loop
         vertex 5.380324e-001 0.000000e+000 5.380324e-001
         vertex -5.380324e-001 1.000000e-001 5.380324e-001
         vertex -5.380324e-001 0.000000e+000 5.380324e-001
      endloop
   endfacet
   facet normal -1.000000e+000 0.000000e+000 0.000000e+000
      outer loop
         vertex 2.482658e-001 1.000000e-001 3.406043e-001
         vertex 2.482658e-001 1.000000e-001 -3.406043e-001
         vertex 2.482658e-001 0.000000e+000 3.406043e-001
      endloop
   endfacet
   facet normal -1.000000e+000 0.000000e+000 0.000000e+000
      outer loop
         vertex 2.482658e-001 0.000000e+000 3.406043e-001
         vertex 2.482658e-001 1.000000e-001 -3.406043e-001
         vertex 2.482658e-001 0.000000e+000 -3.406043e-001
      endloop
   endfacet
   facet normal 0.000000e+000 0.000000e+000 1.000000e+000
      outer loop
         vertex 2.482658e-001 1.000000e-001 -3.406043e-001
         vertex -2.482658e-001 1.000000e-001 -3.406043e-001
         vertex 2.482658e-001 0.000000e+000 -3.406043e-001
      endloop
   endfacet
   facet normal 0.000000e+000 0.000000e+000 1.000000e+000
      outer loop
         vertex 2.482658e-001 0.000000e+000 -3.406043e-001
         vertex -2.482658e-001 1.000000e-001 -3.406043e-001
         vertex -2.482658e-001 0.000000e+000 -3.406043e-001
      endloop
   endfacet
   facet normal 1.000000e+000 0.000000e+000 0.000000e+000
      outer loop
         vertex -2.482658e-001 1.000000e-001 -3.406043e-001
         vertex -2.482658e-001 1.000000e-001 3.406043e-001
         vertex -2.482658e-001 0.000000e+000 -3.406043e-001
      endloop
   endfacet
   facet normal 1.000000e+000 0.000000e+000 0.000000e+000
      outer loop
         vertex -2.482658e-001 0.000000e+000 -3.406043e-001
         vertex -2.482658e-001 1.000000e-001 3.406043e-001
         vertex -2.482658e-001 0.000000e+000 3.406043e-001
      endloop
   endfacet
   facet normal -1.375465e-016 0.000000e+000 -1.000000e+000
      outer loop
         vertex -2.482658e-001 1.000000e-001 3.406043e-001
         vertex 2.482658e-001 1.000000e-001 3.406043e-001
         vertex -2.482658e-001 0.000000e+000 3.406043e-001
      endloop
   endfacet
   facet normal -1.375465e-016 0.000000e+000 -1.000000e+000
      outer loop
         vertex -2.482658e-001 0.000000e+000 3.406043e-001
         vertex 2.482658e-001 1.000000e-001 3.406043e-001
         vertex 2.482658e-001 0.000000e+000 3.406043e-001
      endloop
   endfacet
endsolid