solid WallTest
   facet normal 0.000000e+000 1.000000e+000 0.000000e+000
      outer loop
         vertex 1.828540e-001 5.000000e-001 2.921135e-001
         vertex 1.828540e-001 5.000000e-001 -2.841880e-001
         vertex -9.793729e-002 5.000000e-001 -2.841880e-001
      endloop
   endfacet
   facet normal 0.000000e+000 1.000000e+000 0.000000e+000
      outer loop
         vertex 2.575807e-001 5.000000e-001 -2.841880e-001
         vertex 5.000000e-001 5.000000e-001 -3.500000e-001
         vertex 1.828540e-001 5.000000e-001 -2.841880e-001
      endloop
   endfacet
   facet normal 0.000000e+000 1.000000e+000 0.000000e+000
      outer loop
         vertex 1.828540e-001 5.000000e-001 -2.841880e-001
         vertex 5.000000e-001 5.000000e-001 -3.500000e-001
         vertex -5.000000e-001 5.000000e-001 -3.500000e-001
      endloop
   endfacet
   facet normal 0.000000e+000 1.000000e+000 0.000000e+000
      outer loop
         vertex 1.828540e-001 5.000000e-001 -2.841880e-001
         vertex -5.000000e-001 5.000000e-001 -3.500000e-001
         vertex -9.793729e-002 5.000000e-001 -2.841880e-001
      endloop
   endfacet
   facet normal 0.000000e+000 1.000000e+000 0.000000e+000
      outer loop
         vertex 5.000000e-001 5.000000e-001 3.500000e-001
         vertex -9.793729e-002 5.000000e-001 2.921135e-001
         vertex -5.000000e-001 5.000000e-001 3.500000e-001
      endloop
   endfacet
   facet normal 0.000000e+000 1.000000e+000 0.000000e+000
      outer loop
         vertex -5.000000e-001 5.000000e-001 3.500000e-001
         vertex -9.793729e-002 5.000000e-001 2.921135e-001
         vertex -4.342075e-001 5.000000e-001 2.921135e-001
      endloop
   endfacet
   facet normal 0.000000e+000 1.000000e+000 0.000000e+000
      outer loop
         vertex -5.000000e-001 5.000000e-001 3.500000e-001
         vertex -4.342075e-001 5.000000e-001 2.921135e-001
         vertex -5.000000e-001 5.000000e-001 -3.500000e-001
      endloop
   endfacet
   facet normal 0.000000e+000 1.000000e+000 0.000000e+000
      outer loop
         vertex -5.000000e-001 5.000000e-001 -3.500000e-001
         vertex -4.342075e-001 5.000000e-001 2.921135e-001
         vertex -4.342075e-001 5.000000e-001 -2.841880e-001
      endloop
   endfacet
   facet normal 0.000000e+000 1.000000e+000 0.000000e+000
      outer loop
         vertex -5.000000e-001 5.000000e-001 -3.500000e-001
         vertex -4.342075e-001 5.000000e-001 -2.841880e-001
         vertex -9.793729e-002 5.000000e-001 -2.841880e-001
      endloop
   endfacet
   facet normal 0.000000e+000 1.000000e+000 0.000000e+000
      outer loop
         vertex -9.793729e-002 5.000000e-001 -2.841880e-001
         vertex -9.793729e-002 5.000000e-001 2.921135e-001
         vertex 1.828540e-001 5.000000e-001 2.921135e-001
      endloop
   endfacet
   facet normal 0.000000e+000 1.000000e+000 0.000000e+000
      outer loop
         vertex 1.828540e-001 5.000000e-001 2.921135e-001
         vertex -9.793729e-002 5.000000e-001 2.921135e-001
         vertex 5.000000e-001 5.000000e-001 3.500000e-001
      endloop
   endfacet
   facet normal 0.000000e+000 1.000000e+000 0.000000e+000
      outer loop
         vertex 1.828540e-001 5.000000e-001 2.921135e-001
         vertex 5.000000e-001 5.000000e-001 3.500000e-001
         vertex 2.575807e-001 5.000000e-001 2.921135e-001
      endloop
   endfacet
   facet normal 0.000000e+000 1.000000e+000 0.000000e+000
      outer loop
         vertex 2.575807e-001 5.000000e-001 2.921135e-001
         vertex 5.000000e-001 5.000000e-001 3.500000e-001
         vertex 4.160919e-001 5.000000e-001 2.921135e-001
      endloop
   endfacet
   facet normal 0.000000e+000 1.000000e+000 0.000000e+000
      outer loop
         vertex 2.575807e-001 5.000000e-001 2.921135e-001
         vertex 4.160919e-001 5.000000e-001 2.921135e-001
         vertex 2.575807e-001 5.000000e-001 -2.841880e-001
      endloop
   endfacet
   facet normal 0.000000e+000 1.000000e+000 0.000000e+000
      outer loop
         vertex 2.575807e-001 5.000000e-001 -2.841880e-001
         vertex 4.160919e-001 5.000000e-001 2.921135e-001
         vertex 4.160919e-001 5.000000e-001 -2.841880e-001
      endloop
   endfacet
   facet normal 0.000000e+000 1.000000e+000 0.000000e+000
      outer loop
         vertex 2.575807e-001 5.000000e-001 -2.841880e-001
         vertex 4.160919e-001 5.000000e-001 -2.841880e-001
         vertex 5.000000e-001 5.000000e-001 -3.500000e-001
      endloop
   endfacet
   facet normal 0.000000e+000 1.000000e+000 0.000000e+000
      outer loop
         vertex 5.000000e-001 5.000000e-001 -3.500000e-001
         vertex 4.160919e-001 5.000000e-001 -2.841880e-001
         vertex 4.330753e-001 5.000000e-001 -2.841880e-001
      endloop
   endfacet
   facet normal 0.000000e+000 1.000000e+000 0.000000e+000
      outer loop
         vertex 5.000000e-001 5.000000e-001 -3.500000e-001
         vertex 4.330753e-001 5.000000e-001 -2.841880e-001
         vertex 5.000000e-001 5.000000e-001 3.500000e-001
      endloop
   endfacet
   facet normal 0.000000e+000 1.000000e+000 0.000000e+000
      outer loop
         vertex 5.000000e-001 5.000000e-001 3.500000e-001
         vertex 4.330753e-001 5.000000e-001 -2.841880e-001
         vertex 4.330753e-001 5.000000e-001 2.921135e-001
      endloop
   endfacet
   facet normal 0.000000e+000 1.000000e+000 0.000000e+000
      outer loop
         vertex 5.000000e-001 5.000000e-001 3.500000e-001
         vertex 4.330753e-001 5.000000e-001 2.921135e-001
         vertex 4.160919e-001 5.000000e-001 2.921135e-001
      endloop
   endfacet
   facet normal 1.000000e+000 0.000000e+000 0.000000e+000
      outer loop
         vertex 5.000000e-001 5.000000e-001 -3.500000e-001
         vertex 5.000000e-001 5.000000e-001 3.500000e-001
         vertex 5.000000e-001 0.000000e+000 -3.500000e-001
      endloop
   endfacet
   facet normal 1.000000e+000 0.000000e+000 0.000000e+000
      outer loop
         vertex 5.000000e-001 0.000000e+000 -3.500000e-001
         vertex 5.000000e-001 5.000000e-001 3.500000e-001
         vertex 5.000000e-001 0.000000e+000 3.500000e-001
      endloop
   endfacet
   facet normal 0.000000e+000 0.000000e+000 -1.000000e+000
      outer loop
         vertex -5.000000e-001 5.000000e-001 -3.500000e-001
         vertex 5.000000e-001 5.000000e-001 -3.500000e-001
         vertex -5.000000e-001 0.000000e+000 -3.500000e-001
      endloop
   endfacet
   facet normal 0.000000e+000 0.000000e+000 -1.000000e+000
      outer loop
         vertex -5.000000e-001 0.000000e+000 -3.500000e-001
         vertex 5.000000e-001 5.000000e-001 -3.500000e-001
         vertex 5.000000e-001 0.000000e+000 -3.500000e-001
      endloop
   endfacet
   facet normal -1.000000e+000 0.000000e+000 0.000000e+000
      outer loop
         vertex -5.000000e-001 5.000000e-001 3.500000e-001
         vertex -5.000000e-001 5.000000e-001 -3.500000e-001
         vertex -5.000000e-001 0.000000e+000 3.500000e-001
      endloop
   endfacet
   facet normal -1.000000e+000 0.000000e+000 0.000000e+000
      outer loop
         vertex -5.000000e-001 0.000000e+000 3.500000e-001
         vertex -5.000000e-001 5.000000e-001 -3.500000e-001
         vertex -5.000000e-001 0.000000e+000 -3.500000e-001
      endloop
   endfacet
   facet normal 0.000000e+000 0.000000e+000 1.000000e+000
      outer loop
         vertex 5.000000e-001 5.000000e-001 3.500000e-001
         vertex -5.000000e-001 5.000000e-001 3.500000e-001
         vertex 5.000000e-001 0.000000e+000 3.500000e-001
      endloop
   endfacet
   facet normal 0.000000e+000 0.000000e+000 1.000000e+000
      outer loop
         vertex 5.000000e-001 0.000000e+000 3.500000e-001
         vertex -5.000000e-001 5.000000e-001 3.500000e-001
         vertex -5.000000e-001 0.000000e+000 3.500000e-001
      endloop
   endfacet
   facet normal 0.000000e+000 -1.000000e+000 0.000000e+000
      outer loop
         vertex -5.000000e-001 0.000000e+000 3.500000e-001
         vertex -5.000000e-001 0.000000e+000 -3.500000e-001
         vertex 5.000000e-001 0.000000e+000 3.500000e-001
      endloop
   endfacet
   facet normal 0.000000e+000 -1.000000e+000 0.000000e+000
      outer loop
         vertex 5.000000e-001 0.000000e+000 3.500000e-001
         vertex -5.000000e-001 0.000000e+000 -3.500000e-001
         vertex 5.000000e-001 0.000000e+000 -3.500000e-001
      endloop
   endfacet
   facet normal -1.000000e+000 0.000000e+000 0.000000e+000
      outer loop
         vertex -4.342075e-001 1.000000e+000 2.921135e-001
         vertex -4.342075e-001 1.000000e+000 -2.841880e-001
         vertex -4.342075e-001 5.000000e-001 2.921135e-001
      endloop
   endfacet
   facet normal -1.000000e+000 0.000000e+000 0.000000e+000
      outer loop
         vertex -4.342075e-001 5.000000e-001 2.921135e-001
         vertex -4.342075e-001 1.000000e+000 -2.841880e-001
         vertex -4.342075e-001 5.000000e-001 -2.841880e-001
      endloop
   endfacet
   facet normal 0.000000e+000 0.000000e+000 1.000000e+000
      outer loop
         vertex -9.793729e-002 1.000000e+000 2.921135e-001
         vertex -4.342075e-001 1.000000e+000 2.921135e-001
         vertex -9.793729e-002 5.000000e-001 2.921135e-001
      endloop
   endfacet
   facet normal 0.000000e+000 0.000000e+000 1.000000e+000
      outer loop
         vertex -9.793729e-002 5.000000e-001 2.921135e-001
         vertex -4.342075e-001 1.000000e+000 2.921135e-001
         vertex -4.342075e-001 5.000000e-001 2.921135e-001
      endloop
   endfacet
   facet normal 1.000000e+000 0.000000e+000 0.000000e+000
      outer loop
         vertex -9.793729e-002 1.000000e+000 -2.841880e-001
         vertex -9.793729e-002 1.000000e+000 2.921135e-001
         vertex -9.793729e-002 5.000000e-001 -2.841880e-001
      endloop
   endfacet
   facet normal 1.000000e+000 0.000000e+000 0.000000e+000
      outer loop
         vertex -9.793729e-002 5.000000e-001 -2.841880e-001
         vertex -9.793729e-002 1.000000e+000 2.921135e-001
         vertex -9.793729e-002 5.000000e-001 2.921135e-001
      endloop
   endfacet
   facet normal 0.000000e+000 0.000000e+000 -1.000000e+000
      outer loop
         vertex -4.342075e-001 1.000000e+000 -2.841880e-001
         vertex -9.793729e-002 1.000000e+000 -2.841880e-001
         vertex -4.342075e-001 5.000000e-001 -2.841880e-001
      endloop
   endfacet
   facet normal 0.000000e+000 0.000000e+000 -1.000000e+000
      outer loop
         vertex -4.342075e-001 5.000000e-001 -2.841880e-001
         vertex -9.793729e-002 1.000000e+000 -2.841880e-001
         vertex -9.793729e-002 5.000000e-001 -2.841880e-001
      endloop
   endfacet
   facet normal 0.000000e+000 1.000000e+000 0.000000e+000
      outer loop
         vertex -9.793729e-002 1.000000e+000 2.921135e-001
         vertex -9.793729e-002 1.000000e+000 -2.841880e-001
         vertex -4.342075e-001 1.000000e+000 2.921135e-001
      endloop
   endfacet
   facet normal 0.000000e+000 1.000000e+000 0.000000e+000
      outer loop
         vertex -4.342075e-001 1.000000e+000 2.921135e-001
         vertex -9.793729e-002 1.000000e+000 -2.841880e-001
         vertex -4.342075e-001 1.000000e+000 -2.841880e-001
      endloop
   endfacet
   facet normal -1.000000e+000 0.000000e+000 0.000000e+000
      outer loop
         vertex 1.828540e-001 1.000000e+000 2.921135e-001
         vertex 1.828540e-001 1.000000e+000 -2.841880e-001
         vertex 1.828540e-001 5.000000e-001 2.921135e-001
      endloop
   endfacet
   facet normal -1.000000e+000 0.000000e+000 0.000000e+000
      outer loop
         vertex 1.828540e-001 5.000000e-001 2.921135e-001
         vertex 1.828540e-001 1.000000e+000 -2.841880e-001
         vertex 1.828540e-001 5.000000e-001 -2.841880e-001
      endloop
   endfacet
   facet normal 0.000000e+000 0.000000e+000 1.000000e+000
      outer loop
         vertex 2.575807e-001 1.000000e+000 2.921135e-001
         vertex 1.828540e-001 1.000000e+000 2.921135e-001
         vertex 2.575807e-001 5.000000e-001 2.921135e-001
      endloop
   endfacet
   facet normal 0.000000e+000 0.000000e+000 1.000000e+000
      outer loop
         vertex 2.575807e-001 5.000000e-001 2.921135e-001
         vertex 1.828540e-001 1.000000e+000 2.921135e-001
         vertex 1.828540e-001 5.000000e-001 2.921135e-001
      endloop
   endfacet
   facet normal 1.000000e+000 0.000000e+000 0.000000e+000
      outer loop
         vertex 2.575807e-001 1.000000e+000 -2.841880e-001
         vertex 2.575807e-001 1.000000e+000 2.921135e-001
         vertex 2.575807e-001 5.000000e-001 -2.841880e-001
      endloop
   endfacet
   facet normal 1.000000e+000 0.000000e+000 0.000000e+000
      outer loop
         vertex 2.575807e-001 5.000000e-001 -2.841880e-001
         vertex 2.575807e-001 1.000000e+000 2.921135e-001
         vertex 2.575807e-001 5.000000e-001 2.921135e-001
      endloop
   endfacet
   facet normal 0.000000e+000 0.000000e+000 -1.000000e+000
      outer loop
         vertex 1.828540e-001 1.000000e+000 -2.841880e-001
         vertex 2.575807e-001 1.000000e+000 -2.841880e-001
         vertex 1.828540e-001 5.000000e-001 -2.841880e-001
      endloop
   endfacet
   facet normal 0.000000e+000 0.000000e+000 -1.000000e+000
      outer loop
         vertex 1.828540e-001 5.000000e-001 -2.841880e-001
         vertex 2.575807e-001 1.000000e+000 -2.841880e-001
         vertex 2.575807e-001 5.000000e-001 -2.841880e-001
      endloop
   endfacet
   facet normal 0.000000e+000 1.000000e+000 0.000000e+000
      outer loop
         vertex 2.575807e-001 1.000000e+000 2.921135e-001
         vertex 2.575807e-001 1.000000e+000 -2.841880e-001
         vertex 1.828540e-001 1.000000e+000 2.921135e-001
      endloop
   endfacet
   facet normal 0.000000e+000 1.000000e+000 0.000000e+000
      outer loop
         vertex 1.828540e-001 1.000000e+000 2.921135e-001
         vertex 2.575807e-001 1.000000e+000 -2.841880e-001
         vertex 1.828540e-001 1.000000e+000 -2.841880e-001
      endloop
   endfacet
   facet normal -1.000000e+000 0.000000e+000 0.000000e+000
      outer loop
         vertex 4.160919e-001 1.000000e+000 2.921135e-001
         vertex 4.160919e-001 1.000000e+000 -2.841880e-001
         vertex 4.160919e-001 5.000000e-001 2.921135e-001
      endloop
   endfacet
   facet normal -1.000000e+000 0.000000e+000 0.000000e+000
      outer loop
         vertex 4.160919e-001 5.000000e-001 2.921135e-001
         vertex 4.160919e-001 1.000000e+000 -2.841880e-001
         vertex 4.160919e-001 5.000000e-001 -2.841880e-001
      endloop
   endfacet
   facet normal 0.000000e+000 0.000000e+000 1.000000e+000
      outer loop
         vertex 4.330753e-001 1.000000e+000 2.921135e-001
         vertex 4.160919e-001 1.000000e+000 2.921135e-001
         vertex 4.330753e-001 5.000000e-001 2.921135e-001
      endloop
   endfacet
   facet normal 0.000000e+000 0.000000e+000 1.000000e+000
      outer loop
         vertex 4.330753e-001 5.000000e-001 2.921135e-001
         vertex 4.160919e-001 1.000000e+000 2.921135e-001
         vertex 4.160919e-001 5.000000e-001 2.921135e-001
      endloop
   endfacet
   facet normal 1.000000e+000 0.000000e+000 0.000000e+000
      outer loop
         vertex 4.330753e-001 1.000000e+000 -2.841880e-001
         vertex 4.330753e-001 1.000000e+000 2.921135e-001
         vertex 4.330753e-001 5.000000e-001 -2.841880e-001
      endloop
   endfacet
   facet normal 1.000000e+000 0.000000e+000 0.000000e+000
      outer loop
         vertex 4.330753e-001 5.000000e-001 -2.841880e-001
         vertex 4.330753e-001 1.000000e+000 2.921135e-001
         vertex 4.330753e-001 5.000000e-001 2.921135e-001
      endloop
   endfacet
   facet normal 0.000000e+000 0.000000e+000 -1.000000e+000
      outer loop
         vertex 4.160919e-001 1.000000e+000 -2.841880e-001
         vertex 4.330753e-001 1.000000e+000 -2.841880e-001
         vertex 4.160919e-001 5.000000e-001 -2.841880e-001
      endloop
   endfacet
   facet normal 0.000000e+000 0.000000e+000 -1.000000e+000
      outer loop
         vertex 4.160919e-001 5.000000e-001 -2.841880e-001
         vertex 4.330753e-001 1.000000e+000 -2.841880e-001
         vertex 4.330753e-001 5.000000e-001 -2.841880e-001
      endloop
   endfacet
   facet normal 0.000000e+000 1.000000e+000 0.000000e+000
      outer loop
         vertex 4.330753e-001 1.000000e+000 2.921135e-001
         vertex 4.330753e-001 1.000000e+000 -2.841880e-001
         vertex 4.160919e-001 1.000000e+000 2.921135e-001
      endloop
   endfacet
   facet normal 0.000000e+000 1.000000e+000 0.000000e+000
      outer loop
         vertex 4.160919e-001 1.000000e+000 2.921135e-001
         vertex 4.330753e-001 1.000000e+000 -2.841880e-001
         vertex 4.160919e-001 1.000000e+000 -2.841880e-001
      endloop
   endfacet
endsolid